# xmcd
#
# Track frame offsets:
#	150
#	4369
#	8335
#	12759
#	16726
#	29110
#	34749
#	38093
#	43684
#	48182
#	52714
#	60409
#	71498
#	79876
#	84396
#	87561
#	94046
#	108764
#	123834
#	136773
#	150648
#	172802
#	188810
#	207708
#	219804
#	235262
#	250599
#	265082
#	280092
#	293698
#	307525
#	327302
#	341375
#
# Disc length: 4625 seconds
#
# Revision: 0
# Processed by: cddbd v1.5.2PL0 Copyright (c) Steve Scherf et al.
# Submitted via: EasyCDDAExtractor 16.0.6.1
#
DISCID=9b120f21
DTITLE=Συλλογικός δίσκος - Λαϊκοί συνθέτες Α7-Χιώτης Μανώλης
DYEAR=2010
DGENRE=Λαϊκή
TTITLE0=Λίντα Μαίρη - Ηλιοβασιλέματα
TTITLE1=Λίντα Μαίρη - Μη μού ζαλίζεις το μυαλό
TTITLE2=Λίντα Μαίρη - Σήκω, κοπέλα μου
TTITLE3=Λίντα Μαίρη - Εσύ είσαι η αιτία που υποφέρω
TTITLE4=Μενιδιάτης Μιχάλης - Αγωνίες
TTITLE5=Λίντα Μαίρη - Πάρε με στο τηλέφωνο
TTITLE6=Λίντα Μαίρη - Απότομα
TTITLE7=Λίντα Μαίρη - Θλίψη
TTITLE8=Λίντα Μαίρη - Θα μού βάλεις την κουλούρα [στ. Κ. Κοφινιώτης]
TTITLE9=Λίντα Μαίρη - Λαός και Κολωνάκι
TTITLE10=Λίντα Μαίρη - Παρτίδες
TTITLE11=Αγγελόπουλος Μανώλης - Άδικα μη μού κολλάς
TTITLE12=Λίντα Μαίρη - Περασμένες μου αγάπες [στ. Ε. Παπαγιαννοπούλου]
TTITLE13=Λίντα Μαίρη - Μελαχροινή τσιγγάνα μου
TTITLE14=Λίντα Μαίρη - Σβήσε την φλόγα
TTITLE15=Λίντα Μαίρη - Αφού το θες
TTITLE16=Μοσχολιού Βίκυ - Απόψε φίλα με [στ. Χ. Κολοκοτρώνης]
TTITLE17=Αρβανιτάκη Ελευθερία - Εσύ είσαι η αιτία που υποφέρω
TTITLE18=Λίντα Μαίρη - Το τελευταίο ποτηράκι [στ. Χ. Κολοκοτρώνης]
TTITLE19=Γλυκερία - Θεσσαλονίκη μου [στ. Χ. Κολοκοτρώνης]
TTITLE20=Αρβανιτάκη Ελευθερία - Μοιάζεις κι εσύ σαν θάλασσα
TTITLE21=Νταράλας Λουκάς - Το πλουσιόπαιδο [στ. Χ. Κολοκοτρώνης]
TTITLE22=Καπαρού Αργυρώ - Πάρε το δάκρυ μου
TTITLE23=Οπισθοδρομική κομπανία - Παρτίδες
TTITLE24=Ντάλη Καίτη - Σκότωσέ με [στ. Χ. Κολοκοτρώνης]
TTITLE25=Αγγελόπουλος Μανώλης - Για να σ' έχω όπα όπα [στ. Γ. Βρούβας]
TTITLE26=Λίντα Μαίρη - Περασμένες μου αγάπες [στ. Ε. Παπαγιαννοπούλου]
TTITLE27=Μπέλλου Σωτηρία - Πάλι στις τρεις ήρθες εχθές να κοιμηθείς
TTITLE28=Καπαρού Αργυρώ - Θα μού βάλεις την κουλούρα [στ. Κ. Κοφινιώτης]
TTITLE29=Μπόνη Καίτη - Τα πεταλάκια [στ. Ν. Ρούτσος]
TTITLE30=Ντάλη Καίτη - Το γκαρσόνι [στ. Γ. Οικονομίδης]
TTITLE31=Apurimac - Η σκούνα [διασκ. Apurimac]
TTITLE32=Λίντα Μαίρη - Πάρε με στο τηλέφωνο
EXTD=
EXTT0=
EXTT1=
EXTT2=
EXTT3=
EXTT4=
EXTT5=
EXTT6=
EXTT7=
EXTT8=
EXTT9=
EXTT10=
EXTT11=
EXTT12=
EXTT13=
EXTT14=
EXTT15=
EXTT16=
EXTT17=
EXTT18=
EXTT19=
EXTT20=
EXTT21=
EXTT22=
EXTT23=
EXTT24=
EXTT25=
EXTT26=
EXTT27=
EXTT28=
EXTT29=
EXTT30=
EXTT31=
EXTT32=
PLAYORDER=
